<mxfile host="app.diagrams.net" modified="2022-09-29T03:06:07.388Z" agent="5.0 (Windows NT 10.0; Win64; x64) AppleWebKit/537.36 (KHTML, like Gecko) Chrome/105.0.0.0 Safari/537.36" etag="FqonzFgz4SquI6lTWv0G" version="20.2.8" type="github">
  <diagram id="86kuY6THDulfLYm3_jYT" name="第 1 页">
    <mxGraphModel dx="1209" dy="681" grid="1" gridSize="10" guides="1" tooltips="1" connect="1" arrows="1" fold="1" page="1" pageScale="1" pageWidth="827" pageHeight="1169" math="0" shadow="0">
      <root>
        <mxCell id="0" />
        <mxCell id="1" parent="0" />
        <mxCell id="i65W_1Mk6APGYLlzzR8L-10" style="edgeStyle=orthogonalEdgeStyle;rounded=0;orthogonalLoop=1;jettySize=auto;html=1;exitX=0.5;exitY=1;exitDx=0;exitDy=0;entryX=0.5;entryY=0;entryDx=0;entryDy=0;" edge="1" parent="1" source="i65W_1Mk6APGYLlzzR8L-3" target="i65W_1Mk6APGYLlzzR8L-7">
          <mxGeometry relative="1" as="geometry" />
        </mxCell>
        <mxCell id="i65W_1Mk6APGYLlzzR8L-16" style="edgeStyle=orthogonalEdgeStyle;rounded=0;orthogonalLoop=1;jettySize=auto;html=1;exitX=1;exitY=0.5;exitDx=0;exitDy=0;" edge="1" parent="1" source="i65W_1Mk6APGYLlzzR8L-3">
          <mxGeometry relative="1" as="geometry">
            <mxPoint x="340" y="602" as="targetPoint" />
          </mxGeometry>
        </mxCell>
        <mxCell id="i65W_1Mk6APGYLlzzR8L-3" value="TVM" style="rounded=1;whiteSpace=wrap;html=1;fillColor=#dae8fc;strokeColor=#6c8ebf;" vertex="1" parent="1">
          <mxGeometry x="110.63" y="580" width="88.75" height="43" as="geometry" />
        </mxCell>
        <mxCell id="i65W_1Mk6APGYLlzzR8L-6" value="PYNQ" style="rounded=1;whiteSpace=wrap;html=1;fillColor=#dae8fc;strokeColor=#6c8ebf;" vertex="1" parent="1">
          <mxGeometry x="175" y="710" width="40" height="20" as="geometry" />
        </mxCell>
        <mxCell id="i65W_1Mk6APGYLlzzR8L-30" style="edgeStyle=orthogonalEdgeStyle;rounded=0;orthogonalLoop=1;jettySize=auto;html=1;exitX=1;exitY=0.75;exitDx=0;exitDy=0;" edge="1" parent="1" source="i65W_1Mk6APGYLlzzR8L-7">
          <mxGeometry relative="1" as="geometry">
            <mxPoint x="340" y="703" as="targetPoint" />
          </mxGeometry>
        </mxCell>
        <mxCell id="i65W_1Mk6APGYLlzzR8L-7" value="TVM Runtime" style="rounded=1;whiteSpace=wrap;html=1;fillColor=#dae8fc;strokeColor=#6c8ebf;" vertex="1" parent="1">
          <mxGeometry x="95" y="680" width="120" height="30" as="geometry" />
        </mxCell>
        <mxCell id="i65W_1Mk6APGYLlzzR8L-15" style="edgeStyle=orthogonalEdgeStyle;rounded=0;orthogonalLoop=1;jettySize=auto;html=1;" edge="1" parent="1" source="i65W_1Mk6APGYLlzzR8L-12" target="i65W_1Mk6APGYLlzzR8L-3">
          <mxGeometry relative="1" as="geometry" />
        </mxCell>
        <mxCell id="i65W_1Mk6APGYLlzzR8L-12" value="预训练模型" style="text;html=1;align=center;verticalAlign=middle;resizable=0;points=[];autosize=1;strokeColor=none;fillColor=none;" vertex="1" parent="1">
          <mxGeometry x="115" y="490" width="80" height="30" as="geometry" />
        </mxCell>
        <mxCell id="i65W_1Mk6APGYLlzzR8L-17" value="日志监测" style="text;html=1;align=center;verticalAlign=middle;resizable=0;points=[];autosize=1;strokeColor=none;fillColor=none;" vertex="1" parent="1">
          <mxGeometry x="225" y="575" width="70" height="30" as="geometry" />
        </mxCell>
        <mxCell id="i65W_1Mk6APGYLlzzR8L-24" value="GPU" style="rounded=1;whiteSpace=wrap;html=1;fillColor=#dae8fc;strokeColor=#6c8ebf;" vertex="1" parent="1">
          <mxGeometry x="135" y="710" width="40" height="20" as="geometry" />
        </mxCell>
        <mxCell id="i65W_1Mk6APGYLlzzR8L-25" value="CPU" style="rounded=1;whiteSpace=wrap;html=1;fillColor=#dae8fc;strokeColor=#6c8ebf;" vertex="1" parent="1">
          <mxGeometry x="95" y="710" width="40" height="20" as="geometry" />
        </mxCell>
        <mxCell id="i65W_1Mk6APGYLlzzR8L-29" value="运行资源监测" style="text;html=1;align=center;verticalAlign=middle;resizable=0;points=[];autosize=1;strokeColor=none;fillColor=none;" vertex="1" parent="1">
          <mxGeometry x="222.5" y="670" width="100" height="30" as="geometry" />
        </mxCell>
        <mxCell id="i65W_1Mk6APGYLlzzR8L-36" value="" style="rounded=1;whiteSpace=wrap;html=1;" vertex="1" parent="1">
          <mxGeometry x="390" y="480" width="160" height="180" as="geometry" />
        </mxCell>
        <mxCell id="i65W_1Mk6APGYLlzzR8L-33" value="算子执行数据" style="rounded=1;whiteSpace=wrap;html=1;" vertex="1" parent="1">
          <mxGeometry x="410" y="530" width="50" height="45" as="geometry" />
        </mxCell>
        <mxCell id="i65W_1Mk6APGYLlzzR8L-34" value="运行监测数据" style="rounded=1;whiteSpace=wrap;html=1;" vertex="1" parent="1">
          <mxGeometry x="480" y="530" width="50" height="45" as="geometry" />
        </mxCell>
        <mxCell id="i65W_1Mk6APGYLlzzR8L-35" value="存储层(postgresql/file system)" style="rounded=1;whiteSpace=wrap;html=1;fontStyle=1" vertex="1" parent="1">
          <mxGeometry x="390" y="690" width="350" height="60" as="geometry" />
        </mxCell>
        <mxCell id="i65W_1Mk6APGYLlzzR8L-37" value="DataCollector" style="text;html=1;strokeColor=none;fillColor=none;align=center;verticalAlign=middle;whiteSpace=wrap;rounded=0;" vertex="1" parent="1">
          <mxGeometry x="430" y="490" width="80" height="30" as="geometry" />
        </mxCell>
        <mxCell id="i65W_1Mk6APGYLlzzR8L-41" value="" style="rounded=1;whiteSpace=wrap;html=1;" vertex="1" parent="1">
          <mxGeometry x="600" y="480" width="120" height="180" as="geometry" />
        </mxCell>
        <mxCell id="i65W_1Mk6APGYLlzzR8L-40" value="Data&lt;br&gt;Analyzer" style="text;html=1;strokeColor=none;fillColor=none;align=center;verticalAlign=middle;whiteSpace=wrap;rounded=0;" vertex="1" parent="1">
          <mxGeometry x="630" y="490" width="60" height="30" as="geometry" />
        </mxCell>
        <mxCell id="i65W_1Mk6APGYLlzzR8L-43" value="数据分析" style="rounded=1;whiteSpace=wrap;html=1;" vertex="1" parent="1">
          <mxGeometry x="620" y="535" width="90" height="35" as="geometry" />
        </mxCell>
        <mxCell id="i65W_1Mk6APGYLlzzR8L-44" value="数据聚合" style="rounded=1;whiteSpace=wrap;html=1;" vertex="1" parent="1">
          <mxGeometry x="620" y="590" width="90" height="40" as="geometry" />
        </mxCell>
        <mxCell id="i65W_1Mk6APGYLlzzR8L-46" value="可视化" style="rounded=1;whiteSpace=wrap;html=1;" vertex="1" parent="1">
          <mxGeometry x="390" y="390" width="350" height="60" as="geometry" />
        </mxCell>
        <mxCell id="i65W_1Mk6APGYLlzzR8L-52" value="模型基本数据" style="rounded=1;whiteSpace=wrap;html=1;" vertex="1" parent="1">
          <mxGeometry x="410" y="585" width="50" height="45" as="geometry" />
        </mxCell>
        <mxCell id="i65W_1Mk6APGYLlzzR8L-53" value="TVM编译数据" style="rounded=1;whiteSpace=wrap;html=1;" vertex="1" parent="1">
          <mxGeometry x="480" y="585" width="50" height="45" as="geometry" />
        </mxCell>
        <mxCell id="i65W_1Mk6APGYLlzzR8L-56" value="算子执行数据" style="rounded=1;whiteSpace=wrap;html=1;" vertex="1" parent="1">
          <mxGeometry x="410" y="530" width="50" height="45" as="geometry" />
        </mxCell>
        <mxCell id="i65W_1Mk6APGYLlzzR8L-57" value="运行监测数据" style="rounded=1;whiteSpace=wrap;html=1;" vertex="1" parent="1">
          <mxGeometry x="480" y="530" width="50" height="45" as="geometry" />
        </mxCell>
        <mxCell id="i65W_1Mk6APGYLlzzR8L-58" value="模型基本数据" style="rounded=1;whiteSpace=wrap;html=1;" vertex="1" parent="1">
          <mxGeometry x="410" y="585" width="50" height="45" as="geometry" />
        </mxCell>
      </root>
    </mxGraphModel>
  </diagram>
</mxfile>
